<?xml version="1.0" standalone="no"?>
<!DOCTYPE svg PUBLIC "-//W3C//DTD SVG 20010904//EN"
 "http://www.w3.org/TR/2001/REC-SVG-20010904/DTD/svg10.dtd">
<svg version="1.0" xmlns="http://www.w3.org/2000/svg"
 width="2362.000000pt" height="1063.000000pt" viewBox="0 0 2362.000000 1063.000000"
 preserveAspectRatio="xMidYMid meet">

<g transform="translate(0.000000,1063.000000) scale(0.100000,-0.100000)"
fill="#000000" stroke="none">
<path d="M4160 9089 c-401 -40 -798 -203 -1111 -455 -93 -74 -1701 -1667
-1809 -1791 -158 -182 -322 -463 -400 -688 -40 -116 -84 -295 -101 -415 -22
-153 -17 -497 10 -645 70 -389 228 -731 467 -1014 99 -118 1720 -1733 1816
-1810 313 -251 686 -409 1093 -462 133 -17 409 -15 546 5 241 34 457 100 659
201 280 140 361 205 854 694 842 834 1324 1321 1386 1397 230 285 376 608 446
989 27 141 27 566 1 705 -77 409 -249 769 -505 1055 -163 182 -1713 1718
-1805 1789 -445 343 -993 500 -1547 445z m400 -1334 c146 -39 262 -109 376
-227 195 -200 302 -470 350 -885 20 -173 14 -627 -10 -833 -68 -560 -214
-1043 -445 -1470 -34 -63 -79 -132 -100 -152 -130 -124 -341 -31 -341 151 0
49 7 67 64 171 296 530 436 1105 436 1785 0 605 -147 973 -422 1056 -94 29
-254 23 -343 -11 -75 -30 -176 -127 -228 -220 -50 -91 -101 -252 -129 -405
-20 -116 -22 -161 -22 -425 0 -210 5 -344 17 -465 124 -1193 468 -1978 957
-2185 66 -28 218 -39 300 -21 235 50 548 317 790 672 70 103 86 120 132 143
28 14 66 26 82 26 119 0 216 -97 216 -215 0 -45 -39 -118 -130 -245 -287 -401
-625 -672 -960 -772 -85 -25 -308 -36 -406 -19 -302 53 -609 286 -826 626
-276 434 -467 1076 -552 1860 -105 959 21 1577 385 1890 113 96 247 159 389
184 86 15 343 6 420 -14z m-979 -4126 c42 -21 86 -70 106 -116 19 -45 16 -131
-6 -178 -37 -80 -100 -124 -192 -132 -49 -5 -67 -2 -113 21 -86 42 -128 109
-128 207 0 70 26 124 83 173 68 57 167 68 250 25z"/>
<path d="M14920 6465 l0 -565 -295 0 -295 0 0 -140 0 -140 295 0 295 0 0 -330
0 -329 -78 -25 c-126 -40 -210 -46 -608 -46 -313 0 -380 2 -404 15 -64 33 -60
-19 -60 857 l0 798 425 0 425 0 0 115 0 115 -670 0 -670 0 2 -982 3 -983 25
-45 c14 -24 45 -58 68 -75 l44 -30 616 -3 c657 -4 704 -1 816 44 33 13 61 24
63 24 2 0 3 -189 3 -420 l0 -420 235 0 235 0 0 1565 0 1565 -235 0 -235 0 0
-565z"/>
<path d="M15670 5465 l0 -1565 235 0 235 0 0 1565 0 1565 -235 0 -235 0 0
-1565z"/>
<path d="M19000 6585 l0 -445 -376 0 c-297 0 -375 3 -371 13 36 81 90 232 106
294 29 114 51 278 51 377 l0 86 -805 0 -805 0 0 -115 0 -115 565 0 565 0 0
-23 c0 -55 -34 -220 -65 -314 -147 -443 -518 -792 -1015 -953 -74 -24 -137
-45 -139 -47 -5 -3 58 -185 68 -195 8 -9 200 32 316 67 379 115 724 339 950
615 l57 70 449 0 449 0 0 -540 0 -540 230 0 230 0 0 1105 0 1105 -230 0 -230
0 0 -445z"/>
<path d="M22260 6755 l0 -275 -317 -2 -318 -3 0 -115 0 -115 317 -3 318 -2 2
-398 3 -397 228 -3 227 -2 0 795 0 795 -230 0 -230 0 0 -275z"/>
<path d="M20637 6818 c-6 -190 -26 -294 -87 -436 -112 -263 -354 -526 -605
-658 -41 -21 -75 -42 -75 -46 0 -6 88 -114 135 -166 30 -34 325 117 520 267
90 69 238 215 302 298 31 40 59 73 62 73 3 -1 26 -28 51 -61 109 -147 361
-362 555 -472 92 -52 252 -120 264 -113 14 9 154 176 150 180 -2 1 -41 22 -87
46 -259 137 -494 392 -608 661 -63 148 -85 253 -91 437 l-6 162 -237 0 -237 0
-6 -172z"/>
<path d="M9890 6865 l0 -115 1005 0 1005 0 0 -155 0 -155 -1005 0 -1005 0 0
-290 c0 -240 3 -297 16 -328 19 -47 58 -88 109 -115 39 -21 51 -22 468 -25
l427 -3 0 -149 0 -150 -640 0 -640 0 0 -115 0 -115 1530 0 1530 0 0 115 0 115
-645 0 -645 0 0 150 0 150 515 0 515 0 0 115 0 115 -985 0 c-1089 0 -1027 -4
-1059 64 -13 28 -16 59 -14 138 l3 103 1008 3 1007 2 0 380 0 380 -1250 0
-1250 0 0 -115z"/>
<path d="M20460 5165 l0 -115 905 0 905 0 0 -175 0 -175 -905 0 -905 0 0 -289
c0 -334 6 -367 75 -437 79 -78 9 -74 1187 -74 l1048 0 0 115 0 115 -909 0
-910 0 -20 26 c-19 24 -21 40 -21 170 l0 144 905 0 905 0 0 405 0 405 -1130 0
-1130 0 0 -115z"/>
<path d="M10850 4943 c-83 -258 -285 -488 -586 -669 -148 -89 -285 -145 -492
-200 -8 -2 12 -40 54 -103 76 -115 52 -108 227 -65 252 62 564 208 797 374
101 72 275 221 283 242 3 8 37 -19 88 -68 221 -211 546 -401 879 -511 81 -27
282 -75 288 -69 13 13 132 191 132 198 0 4 -11 8 -24 8 -43 0 -237 69 -351
124 -379 186 -636 464 -731 794 -3 9 -66 12 -273 12 l-269 0 -22 -67z"/>
<path d="M17232 4503 l3 -438 26 -56 c22 -47 34 -60 75 -80 l49 -24 1083 -3
1082 -2 0 115 0 115 -889 0 c-622 0 -897 3 -920 11 -17 6 -36 19 -41 29 -6 11
-10 168 -10 394 l0 376 -231 0 -230 0 3 -437z"/>
</g>
</svg>
