<?xml version="1.0" standalone="no"?>
<!DOCTYPE svg PUBLIC "-//W3C//DTD SVG 20010904//EN"
 "http://www.w3.org/TR/2001/REC-SVG-20010904/DTD/svg10.dtd">
<svg version="1.0" xmlns="http://www.w3.org/2000/svg"
 width="400.000000pt" height="400.000000pt" viewBox="0 0 400.000000 400.000000"
 preserveAspectRatio="xMidYMid meet">

<g transform="translate(0.000000,400.000000) scale(0.100000,-0.100000)"
fill="#000000" stroke="none">
<path d="M1540 2950 c-36 -21 -70 -48 -76 -60 -6 -11 -21 -32 -34 -45 -18 -20
-22 -31 -17 -62 4 -21 15 -45 26 -54 19 -15 26 -15 97 2 87 21 114 41 150 111
31 61 32 112 2 132 -36 25 -78 18 -148 -24z"/>
<path d="M1770 2742 c-202 -82 -307 -159 -359 -261 -27 -51 -27 -118 -1 -151
11 -14 20 -28 20 -32 0 -4 29 -37 64 -72 36 -35 78 -83 95 -107 30 -40 41 -79
22 -79 -4 0 -21 -18 -36 -40 -29 -42 -45 -51 -45 -25 0 21 -6 20 -106 -19
-183 -71 -213 -91 -198 -130 8 -22 75 -40 116 -32 46 9 265 117 310 153 32 26
47 31 125 37 56 4 93 12 102 21 18 18 18 18 -54 42 l-60 20 -6 51 c-7 56 -21
82 -73 140 -57 63 -115 153 -122 187 -4 21 0 44 10 63 26 51 140 139 168 130
6 -2 -8 -16 -31 -31 -44 -29 -54 -57 -21 -57 26 0 134 49 209 95 63 38 88 77
77 120 -10 39 -69 33 -206 -23z m-264 -807 c-11 -8 -25 -15 -30 -15 -6 0 -2 7
8 15 11 8 25 15 30 15 6 0 2 -7 -8 -15z"/>
<path d="M1122 1568 c-43 -21 -42 -96 3 -116 60 -28 135 5 135 58 0 12 -11 32
-25 45 -26 27 -72 32 -113 13z m79 -28 c37 -21 13 -70 -35 -70 -16 0 -46 26
-46 40 0 14 30 40 46 40 9 0 24 -5 35 -10z"/>
<path d="M950 1520 l0 -50 -45 0 c-38 0 -45 -3 -45 -20 0 -17 7 -20 45 -20
l45 0 0 -105 c0 -87 3 -105 15 -105 13 0 15 26 15 175 0 149 -2 175 -15 175
-11 0 -15 -12 -15 -50z"/>
<path d="M1860 1470 c0 -93 1 -100 20 -100 17 0 20 7 20 45 0 38 3 45 20 45
17 0 20 -7 20 -45 0 -33 4 -45 15 -45 12 0 15 18 15 100 0 82 -3 100 -15 100
-10 0 -15 -11 -15 -35 0 -28 -4 -35 -20 -35 -16 0 -20 7 -20 35 0 28 -4 35
-20 35 -19 0 -20 -7 -20 -100z"/>
<path d="M2560 1395 c0 -149 2 -175 15 -175 13 0 15 26 15 175 0 149 -2 175
-15 175 -13 0 -15 -26 -15 -175z"/>
<path d="M3180 1394 c0 -162 1 -175 18 -172 15 3 17 17 20 106 l3 102 29 0
c20 0 30 5 30 15 0 10 -10 15 -30 15 -30 0 -30 1 -30 55 0 48 -2 55 -20 55
-19 0 -20 -7 -20 -176z"/>
<path d="M780 1526 c0 -61 -12 -97 -46 -133 -19 -20 -34 -39 -34 -44 0 -22 23
-16 60 17 l41 37 34 -33 c27 -27 38 -31 47 -22 9 9 3 22 -30 55 -39 40 -42 46
-42 100 0 44 -3 57 -15 57 -10 0 -15 -10 -15 -34z"/>
<path d="M1410 1545 c0 -12 13 -15 56 -15 71 0 68 -14 -12 -56 -33 -17 -58
-36 -56 -43 5 -16 26 -14 76 10 l44 22 36 -22 c35 -22 66 -23 66 -2 0 5 -8 12
-17 16 -10 3 -26 12 -36 19 -17 13 -17 15 4 50 l21 36 -91 0 c-74 0 -91 -3
-91 -15z"/>
<path d="M1700 1475 l0 -85 70 0 c56 0 70 3 70 15 0 12 -13 15 -55 15 -48 0
-55 2 -55 20 0 17 7 20 45 20 33 0 45 4 45 15 0 11 -12 15 -46 15 -38 0 -45 3
-42 18 2 12 15 18 46 20 28 2 42 8 42 18 0 11 -14 14 -60 14 l-60 0 0 -85z"/>
<path d="M2070 1480 l0 -80 90 0 c83 0 90 1 90 20 0 18 -7 20 -76 20 l-75 0 3
43 3 42 73 3 c55 2 72 6 72 17 0 12 -18 15 -90 15 l-90 0 0 -80z"/>
<path d="M2400 1511 c0 -63 -10 -89 -49 -127 -27 -26 -30 -33 -17 -43 12 -10
21 -5 51 25 l37 36 37 -36 c31 -30 40 -34 49 -23 9 10 2 23 -32 56 l-44 43 5
59 c5 55 4 59 -16 59 -19 0 -21 -6 -21 -49z"/>
<path d="M2690 1545 c0 -11 17 -15 73 -17 l72 -3 -3 -48 c-3 -43 -2 -48 15
-45 15 3 19 14 21 66 l3 62 -91 0 c-72 0 -90 -3 -90 -15z"/>
<path d="M3040 1518 c0 -51 -30 -122 -59 -140 -12 -7 -21 -18 -21 -25 0 -26
21 -22 60 13 l41 37 34 -33 c27 -27 38 -31 47 -22 9 9 3 22 -30 55 -39 40 -42
46 -42 100 0 44 -3 57 -15 57 -11 0 -15 -11 -15 -42z"/>
<path d="M2750 1440 l0 -30 -60 0 c-47 0 -60 -3 -60 -15 0 -13 24 -15 155 -15
131 0 155 2 155 15 0 12 -15 15 -75 15 l-75 0 0 30 c0 23 -4 30 -20 30 -16 0
-20 -7 -20 -30z"/>
<path d="M1020 1405 c0 -12 14 -15 65 -15 51 0 65 -3 65 -15 0 -10 -11 -15
-35 -15 -24 0 -35 -5 -35 -15 0 -12 14 -15 70 -15 40 0 70 -4 70 -10 0 -6 -30
-10 -70 -10 l-70 0 0 -45 0 -45 95 0 c88 0 95 1 95 20 0 18 -7 20 -75 20 -43
0 -75 4 -75 10 0 6 30 10 70 10 l70 0 0 40 c0 39 -1 40 -35 40 -24 0 -35 5
-35 15 0 12 14 15 70 15 56 0 70 3 70 15 0 13 -24 15 -155 15 -131 0 -155 -2
-155 -15z"/>
<path d="M1350 1375 c0 -11 16 -15 68 -17 l67 -3 3 -67 c2 -50 7 -68 17 -68
10 0 15 18 17 68 l3 67 68 3 c51 2 67 6 67 17 0 13 -26 15 -155 15 -129 0
-155 -2 -155 -15z"/>
<path d="M2140 1350 l0 -30 -70 0 c-56 0 -70 -3 -70 -15 0 -13 24 -15 155 -15
131 0 155 2 155 15 0 12 -14 15 -70 15 l-70 0 0 30 c0 20 -5 30 -15 30 -10 0
-15 -10 -15 -30z"/>
<path d="M2750 1353 c-54 -20 -69 -90 -25 -119 66 -43 158 4 141 72 -10 38
-72 63 -116 47z m54 -33 c47 -17 27 -70 -26 -70 -18 0 -31 7 -39 22 -10 18 -8
24 11 40 26 21 22 21 54 8z"/>
<path d="M1780 1330 c0 -17 8 -19 78 -22 l77 -3 3 -42 c2 -29 8 -43 18 -43 11
0 14 15 14 65 l0 65 -95 0 c-88 0 -95 -2 -95 -20z"/>
<path d="M767 1153 c-12 -12 -7 -41 8 -47 20 -7 19 -24 -2 -29 -14 -4 -13 -5
4 -6 33 -2 39 20 12 42 -23 18 -23 19 -4 33 14 11 15 14 4 14 -9 0 -19 -3 -22
-7z"/>
<path d="M1040 1115 c0 -25 5 -45 10 -45 6 0 10 20 10 45 0 25 -4 45 -10 45
-5 0 -10 -20 -10 -45z"/>
<path d="M1110 1116 c0 -25 5 -46 10 -46 6 0 10 9 10 20 0 27 28 25 40 -2 7
-18 9 -12 8 27 0 28 -3 40 -5 28 -5 -26 -43 -33 -43 -9 0 8 -4 18 -10 21 -6 4
-10 -12 -10 -39z"/>
<path d="M1633 1144 c-3 -8 4 -26 18 -41 22 -23 23 -25 4 -21 -11 2 -19 10
-17 16 1 7 -3 12 -9 12 -6 0 -9 -8 -7 -17 5 -27 68 -27 68 -1 0 11 -4 17 -9
13 -5 -3 -12 -1 -15 4 -4 5 -2 13 4 16 8 5 7 11 -1 21 -15 18 -28 18 -36 -2z
m27 -4 c0 -5 -4 -10 -10 -10 -5 0 -10 5 -10 10 0 6 5 10 10 10 6 0 10 -4 10
-10z"/>
<path d="M1756 1144 c-30 -29 -10 -75 32 -73 l27 1 -25 7 c-35 9 -40 53 -8 69
17 8 19 11 6 11 -9 1 -24 -6 -32 -15z"/>
<path d="M2558 1149 c-11 -6 -18 -22 -18 -38 0 -29 16 -42 48 -40 10 1 6 4 -8
8 -14 4 -26 15 -28 24 -5 23 17 49 35 43 7 -3 13 -1 13 4 0 13 -20 12 -42 -1z"/>
<path d="M2308 1140 c-9 -27 4 -70 21 -70 13 0 13 2 2 9 -8 5 -12 18 -9 29 6
23 -7 53 -14 32z"/>
<path d="M3008 1138 c-9 -25 5 -68 21 -67 10 0 11 2 4 6 -15 5 -17 40 -4 45 5
2 3 8 -4 15 -10 9 -15 9 -17 1z"/>
<path d="M824 1115 c-10 -24 4 -45 28 -44 23 0 23 0 -2 12 l-25 11 27 3 c18 3
25 9 21 19 -7 19 -42 18 -49 -1z m33 -1 c-3 -3 -12 -4 -19 -1 -8 3 -5 6 6 6
11 1 17 -2 13 -5z"/>
<path d="M894 1116 c-10 -26 4 -48 28 -44 17 2 23 10 23 28 0 18 -6 26 -23 28
-13 2 -25 -3 -28 -12z m46 -10 c0 -20 -19 -31 -32 -18 -6 6 -7 15 -4 21 10 16
36 13 36 -3z"/>
<path d="M971 1103 c-1 -25 3 -33 17 -33 11 0 13 3 6 8 -7 4 -14 18 -17 32 -4
21 -4 20 -6 -7z"/>
<path d="M1012 1100 c0 -19 2 -27 5 -17 2 9 2 25 0 35 -3 9 -5 1 -5 -18z"/>
<path d="M1202 1103 c2 -22 8 -28 28 -28 20 0 25 5 25 25 0 20 -6 26 -28 28
-26 3 -28 1 -25 -25z m43 -3 c0 -8 -8 -16 -17 -18 -13 -2 -18 3 -18 18 0 15 5
20 18 18 9 -2 17 -10 17 -18z"/>
<path d="M1281 1103 c-1 -29 2 -33 24 -33 22 0 25 4 24 33 -1 29 -2 29 -8 8
-9 -35 -29 -37 -34 -4 -4 27 -4 27 -6 -4z"/>
<path d="M1350 1116 c0 -8 6 -17 13 -19 9 -4 8 -8 -3 -16 -13 -9 -13 -11 2
-11 25 0 34 21 15 35 -9 7 -14 15 -10 18 3 4 1 7 -5 7 -7 0 -12 -6 -12 -14z"/>
<path d="M1412 1100 c0 -19 2 -27 5 -17 2 9 2 25 0 35 -3 9 -5 1 -5 -18z"/>
<path d="M1441 1098 c2 -31 2 -31 6 -5 2 15 10 27 18 27 8 0 16 -12 18 -27 4
-26 4 -26 6 5 1 28 -2 32 -24 32 -22 0 -25 -4 -24 -32z"/>
<path d="M1514 1115 c-9 -23 2 -43 28 -47 l23 -5 -25 -11 c-26 -11 -14 -17 14
-6 11 4 16 19 16 45 0 35 -3 39 -25 39 -14 0 -28 -7 -31 -15z m42 -6 c10 -17
-13 -36 -27 -22 -12 12 -4 33 11 33 5 0 12 -5 16 -11z"/>
<path d="M1824 1116 c-10 -26 4 -48 28 -44 17 2 23 10 23 28 0 18 -6 26 -23
28 -13 2 -25 -3 -28 -12z m41 -16 c0 -22 -29 -18 -33 3 -3 14 1 18 15 15 10
-2 18 -10 18 -18z"/>
<path d="M1901 1098 c2 -31 2 -31 6 -5 5 33 25 31 34 -4 7 -23 7 -23 8 4 1 34
22 32 33 -4 6 -22 7 -21 5 6 -2 28 -5 30 -44 33 -43 3 -43 3 -42 -30z"/>
<path d="M2011 1098 c2 -31 2 -31 6 -5 2 15 10 27 18 27 8 0 16 -12 18 -27 l4
-28 2 28 c1 34 22 32 32 -4 6 -21 7 -21 8 9 1 31 0 32 -44 32 -44 0 -45 0 -44
-32z"/>
<path d="M2121 1103 c-1 -25 3 -33 17 -33 11 0 13 3 6 8 -7 4 -14 18 -17 32
-4 21 -4 20 -6 -7z"/>
<path d="M2162 1100 c0 -19 2 -27 5 -17 2 9 2 25 0 35 -3 9 -5 1 -5 -18z"/>
<path d="M2190 1100 c0 -16 5 -30 10 -30 6 0 10 12 10 26 0 32 22 27 31 -7 6
-21 7 -21 8 9 1 29 -2 32 -29 32 -27 0 -30 -3 -30 -30z"/>
<path d="M2272 1100 c0 -19 2 -27 5 -17 2 9 2 25 0 35 -3 9 -5 1 -5 -18z"/>
<path d="M2352 1100 c0 -19 2 -27 5 -17 2 9 2 25 0 35 -3 9 -5 1 -5 -18z"/>
<path d="M2384 1115 c-10 -24 4 -45 28 -44 l23 2 -22 4 c-28 5 -30 23 -3 23
11 0 20 7 20 15 0 8 -9 15 -20 15 -11 0 -23 -7 -26 -15z m33 -1 c-3 -3 -12 -4
-19 -1 -8 3 -5 6 6 6 11 1 17 -2 13 -5z"/>
<path d="M2450 1116 c0 -8 8 -17 18 -21 16 -7 15 -8 -3 -15 -16 -7 -17 -9 -3
-9 25 -1 34 20 15 34 -9 7 -14 15 -10 18 3 4 1 7 -5 7 -7 0 -12 -6 -12 -14z"/>
<path d="M2614 1116 c-10 -26 4 -48 28 -44 17 2 23 10 23 28 0 18 -6 26 -23
28 -13 2 -25 -3 -28 -12z m46 -16 c0 -21 -24 -28 -35 -10 -8 14 3 30 21 30 8
0 14 -9 14 -20z"/>
<path d="M2691 1098 c1 -22 3 -26 6 -13 3 11 10 26 15 33 8 9 6 12 -6 12 -12
0 -16 -9 -15 -32z"/>
<path d="M2741 1083 c1 -27 3 -40 6 -30 2 9 13 17 23 17 10 0 20 7 24 15 9 25
-4 45 -30 45 -22 0 -24 -4 -23 -47z m39 17 c0 -11 -7 -20 -15 -20 -8 0 -15 9
-15 20 0 11 7 20 15 20 8 0 15 -9 15 -20z"/>
<path d="M2814 1116 c-10 -26 4 -48 28 -44 17 2 23 10 23 28 0 18 -6 26 -23
28 -13 2 -25 -3 -28 -12z m46 -10 c0 -8 -5 -18 -11 -22 -14 -8 -33 11 -25 25
10 16 36 13 36 -3z"/>
<path d="M2891 1098 c1 -22 3 -26 6 -13 3 11 10 26 15 33 8 9 6 12 -6 12 -12
0 -16 -9 -15 -32z"/>
<path d="M2965 1121 c3 -5 -4 -13 -15 -16 -26 -8 -21 -29 8 -33 19 -3 22 1 22
27 0 17 -5 31 -11 31 -5 0 -8 -4 -4 -9z m5 -31 c0 -5 -7 -10 -16 -10 -8 0 -12
5 -9 10 3 6 10 10 16 10 5 0 9 -4 9 -10z"/>
<path d="M3052 1100 c0 -19 2 -27 5 -17 2 9 2 25 0 35 -3 9 -5 1 -5 -18z"/>
<path d="M3084 1116 c-10 -26 4 -48 28 -44 17 2 23 10 23 28 0 18 -6 26 -23
28 -13 2 -25 -3 -28 -12z m46 -16 c0 -21 -24 -28 -35 -10 -8 14 3 30 21 30 8
0 14 -9 14 -20z"/>
<path d="M3161 1098 c1 -30 2 -30 8 -9 9 35 29 37 34 4 4 -27 4 -27 6 5 1 28
-2 32 -24 32 -22 0 -25 -4 -24 -32z"/>
</g>
</svg>
