<svg xmlns="http://www.w3.org/2000/svg" width="564.28912pt" height="201.23224pt" viewBox="0 0 564.2891 201.23224"><path fill="#2b3467" d="M158.051 111.083c0-45.425 103.132-82.24 230.338-82.24 70.537 0 133.641 3.718 175.9 14.759C508.495 17.267 415.141 0 309.37 0 138.51 0 0 45.051 0 100.616c0 55.56 138.51 100.616 309.37 100.616 15.185 0 30.114-.357 44.707-1.05-110.934-7.126-196.026-47.855-196.026-89.099" style="fill:#2e3192;fill-opacity:1;stroke-width:4.24971"/><path fill="#2b3467" d="M244.813 140.972c0 1.7 1.02 3.022 3.064 3.872 4.19 1.89 12.018 2.363 23.586 2.363 11.572 0 19.396-.472 23.59-2.363 2.044-.85 3.064-2.172 3.064-3.872 0-1.7-1.02-3.021-3.064-3.969-4.194-1.793-12.018-2.363-23.59-2.363-11.568 0-19.396.57-23.586 2.363-2.044.948-3.064 2.27-3.064 3.97m-13.722-70.954h80.523v10.862h-31.983c3.17 6.898 17.58 10.582 33.118 11.53v10.862c-16.897-.85-32.328-4.721-41.511-11.619-9.184 6.898-24.61 10.77-41.511 11.619V92.411c15.311-.757 29.828-4.632 33.007-11.53h-31.643zm47.86 48.277v5.575c10.888.379 19.731 1.794 25.745 4.535 5.898 2.737 8.958 6.71 8.958 12.566 0 5.856-3.06 9.826-8.958 12.473-7.378 3.493-18.941 4.722-33.233 4.722-14.292 0-25.855-1.229-33.233-4.722-5.78-2.647-8.954-6.617-8.954-12.473 0-5.856 3.175-9.83 8.954-12.566 6.014-2.741 14.751-4.063 25.41-4.535v-5.575h-39.128v-11.054h93.68v11.054zM475.152 87.59h14.411v11.338h-14.41v19.557h-15.538V68.98h15.537zm-63.057 51.017c0 2.083 1.14 3.689 3.404 4.917 4.195 2.265 12.023 3.022 21.546 3.022 9.643 0 17.356-.757 21.665-3.022 2.155-1.228 3.285-2.834 3.285-4.917 0-1.98-1.13-3.587-3.285-4.815-4.309-2.363-12.022-3.026-21.665-3.026-9.523 0-17.351.663-21.546 3.026-2.265 1.228-3.404 2.835-3.404 4.815m-6.009-46.768c0 4.348 1.475 7.752 4.195 9.83 2.044 1.606 4.76 2.363 8.163 2.363 3.404 0 6.243-.757 8.283-2.363 2.724-2.078 4.194-5.482 4.194-9.83 0-4.343-1.47-7.84-4.194-9.825-2.04-1.602-4.879-2.457-8.283-2.457s-6.12.855-8.163 2.457c-2.72 1.984-4.195 5.482-4.195 9.825m-9.528 46.768c0-5.571 2.839-9.727 7.599-12.66 7.488-4.628 19.62-6.328 32.888-6.328 13.272 0 25.41 1.7 32.893 6.328 4.768 2.933 7.598 7.089 7.598 12.66 0 5.576-2.83 9.732-7.598 12.664-7.484 4.628-19.621 6.328-32.893 6.328-13.267 0-25.4-1.7-32.888-6.328-4.76-2.932-7.599-7.088-7.599-12.664M390.89 91.84c0-8.312 3.175-14.64 9.188-18.61 4.53-3.119 10.888-4.725 18.367-4.725 7.603 0 13.837 1.606 18.49 4.726 5.9 3.969 9.078 10.297 9.078 18.61 0 8.222-3.179 14.648-9.077 18.613-4.654 3.12-10.888 4.726-18.49 4.726-7.48 0-13.838-1.607-18.368-4.726-6.013-3.965-9.188-10.39-9.188-18.614" style="fill:#2e3192;fill-opacity:1;stroke-width:4.24971"/></svg>