<svg width="108" height="129" viewBox="0 0 108 129" fill="none" xmlns="http://www.w3.org/2000/svg">
<path d="M3 53.7639H104.528V125.431H3V53.7639Z" fill="white"/>
<path d="M20.917 77.6528H47.792V125.431H20.917V77.6528Z" fill="#A57939"/>
<path d="M65.708 77.6528H89.5969V98.5556H65.708V77.6528Z" fill="#92D3F5"/>
<path d="M104.528 53.7639L3 53.7648V50.7778L50.7778 3L104.528 50.7778V53.7639Z" fill="#EA5A47"/>
<path d="M32.8612 20.9166L17.9307 35.8472V8.97217H32.8612V20.9166Z" fill="#EA5A47"/>
<path d="M20.917 77.6528H47.792V125.431H20.917V77.6528Z" stroke="black" stroke-width="5.97222" stroke-miterlimit="10" stroke-linecap="round" stroke-linejoin="round"/>
<path d="M65.708 77.6528H89.5969V98.5556H65.708V77.6528Z" stroke="black" stroke-width="5.97222" stroke-miterlimit="10" stroke-linecap="round" stroke-linejoin="round"/>
<path d="M104.528 53.7639L3 53.7648V50.7778L50.7778 3L104.528 50.7778V53.7639Z" stroke="black" stroke-width="5.97222" stroke-miterlimit="10" stroke-linecap="round" stroke-linejoin="round"/>
<path d="M3 53.7639H104.528V125.431H3V53.7639Z" stroke="black" stroke-width="5.97222" stroke-miterlimit="10" stroke-linecap="round" stroke-linejoin="round"/>
<path d="M32.8612 20.9166L17.9307 35.8472V8.97217H32.8612V20.9166Z" stroke="black" stroke-width="5.97222" stroke-miterlimit="10" stroke-linecap="round" stroke-linejoin="round"/>
</svg>
