<svg width="192" height="45" viewBox="0 0 192 45" fill="none" xmlns="http://www.w3.org/2000/svg">
<path d="M10.28 44H0.74V1.16H24.2V8.6H10.28V19.64H23.24V27.08H10.28V44ZM48.1831 44H28.5631V38.84L33.5431 36.44V8.72L28.5631 6.32V1.16H48.1831V6.32L43.2631 8.72V36.44L48.1831 38.84V44ZM91.7834 44H79.2434L63.1034 11.6H62.8634C62.9034 12.6 62.9434 13.62 62.9834 14.66C63.0234 15.66 63.0634 16.68 63.1034 17.72C63.1834 18.72 63.2434 19.74 63.2834 20.78C63.3234 21.78 63.3634 22.8 63.4034 23.84V44H54.7634V1.16H67.2434L83.3234 33.26H83.5034C83.5034 32.26 83.4834 31.28 83.4434 30.32C83.4034 29.32 83.3434 28.34 83.2634 27.38C83.2234 26.38 83.1834 25.4 83.1434 24.44C83.1034 23.44 83.0834 22.44 83.0834 21.44V1.16H91.7834V44ZM126.247 32.12C126.247 34.64 125.687 36.84 124.567 38.72C123.447 40.6 121.747 42.06 119.467 43.1C117.227 44.1 114.387 44.6 110.947 44.6C109.347 44.6 107.867 44.5 106.507 44.3C105.147 44.1 103.867 43.82 102.667 43.46C101.467 43.06 100.267 42.58 99.0669 42.02V33.56C101.107 34.44 103.187 35.26 105.307 36.02C107.467 36.74 109.507 37.1 111.427 37.1C112.667 37.1 113.667 36.9 114.427 36.5C115.187 36.1 115.747 35.56 116.107 34.88C116.467 34.2 116.647 33.42 116.647 32.54C116.647 31.46 116.347 30.54 115.747 29.78C115.187 29.02 114.347 28.32 113.227 27.68C112.107 27 110.727 26.32 109.087 25.64C107.887 25.12 106.707 24.52 105.547 23.84C104.387 23.16 103.347 22.34 102.427 21.38C101.507 20.38 100.767 19.18 100.207 17.78C99.6869 16.38 99.4269 14.7 99.4269 12.74C99.4269 10.18 100.027 8 101.227 6.2C102.427 4.36 104.107 2.96 106.267 2C108.427 1.04 110.947 0.559998 113.827 0.559998C116.187 0.559998 118.367 0.819998 120.367 1.34C122.407 1.86 124.347 2.6 126.187 3.56L123.127 10.64C121.367 9.84 119.687 9.22 118.087 8.78C116.527 8.34 115.007 8.12 113.527 8.12C112.527 8.12 111.687 8.3 111.007 8.66C110.327 9.02 109.807 9.52 109.447 10.16C109.127 10.8 108.967 11.56 108.967 12.44C108.967 13.44 109.227 14.3 109.747 15.02C110.307 15.7 111.167 16.38 112.327 17.06C113.487 17.7 114.967 18.48 116.767 19.4C118.767 20.4 120.467 21.46 121.867 22.58C123.307 23.66 124.387 24.96 125.107 26.48C125.867 28 126.247 29.88 126.247 32.12ZM156.565 44H133.045V1.16H156.565V8.6H142.765V18.02H155.605V25.46H142.765V36.5H156.565V44ZM180.954 44H171.234V8.72H160.854V1.16H191.334V8.72H180.954V44Z" fill="#5289FF"/>
</svg>
