<svg width="115" height="123" viewBox="0 0 115 123" fill="none" xmlns="http://www.w3.org/2000/svg">
<path d="M94.972 110.413V115.646C94.972 118.5 92.6582 120.814 89.8034 120.814H7.10703C4.25255 120.814 1.93848 118.5 1.93848 115.646V7.10654C1.93848 4.25207 4.25232 1.93799 7.10703 1.93799H89.8034C92.6579 1.93799 94.972 4.25183 94.972 7.10654V71.7132V110.413Z" fill="#ACE5AC"/>
<path d="M97.5569 91.0953C97.5569 101.8 88.8791 110.477 78.1749 110.477C67.4708 110.477 58.793 101.8 58.793 91.0953C58.793 80.3912 67.4708 71.7134 78.1749 71.7134C88.8791 71.7134 97.5569 80.3909 97.5569 91.0953Z" fill="#FE9D5E"/>
<path d="M87.2196 91.0954C87.2196 96.0908 83.1699 100.14 78.1747 100.14C73.1795 100.14 69.1299 96.0906 69.1299 91.0954C69.1299 86.1002 73.1795 82.0505 78.1747 82.0505C83.1699 82.0505 87.2196 86.0999 87.2196 91.0954Z" fill="#FE5A3A"/>
<path d="M101.433 92.3229V100.14L98.033 118.274C97.7568 119.747 96.4707 120.814 94.9723 120.814C93.4739 120.814 92.1881 119.747 91.9119 118.274L88.5117 100.14V92.3229H101.433Z" fill="#FEAF50"/>
<path d="M94.9723 92.3229V120.814C93.4739 120.814 92.1881 119.747 91.9119 118.274L88.5117 100.14V92.3229H94.9723Z" fill="#FE9443"/>
<path d="M101.433 100.14H88.512C87.0848 100.14 85.9277 98.983 85.9277 97.5558V10.9831C85.9277 5.98763 89.9774 1.93823 94.9726 1.93823C99.968 1.93823 104.017 5.98787 104.017 10.9831V97.556C104.018 98.983 102.861 100.14 101.433 100.14Z" fill="#6583B7"/>
<path d="M96.911 100.14H88.512C87.0848 100.14 85.9277 98.983 85.9277 97.5558V10.9831C85.9277 5.98763 89.9774 1.93823 94.9726 1.93823C95.6381 1.93823 96.2862 2.01208 96.9107 2.14849V100.14H96.911Z" fill="#355072"/>
<path d="M105.308 45.8706C101.027 45.8706 97.5557 42.3997 97.5557 38.1177V14.8595C97.5557 12.005 99.8695 9.69092 102.724 9.69092H107.893C110.747 9.69092 113.061 12.0048 113.061 14.8595V38.118C113.061 42.3997 109.59 45.8706 105.308 45.8706Z" fill="#FE9443"/>
<path d="M104.017 10.9832C104.017 10.5444 103.984 10.1134 103.924 9.69116H107.894C110.748 9.69116 113.062 12.005 113.062 14.8597V38.1182C113.062 42.4002 109.591 45.8711 105.309 45.8711C104.869 45.8711 104.438 45.8322 104.017 45.7617V10.9832H104.017Z" fill="#FEAF50"/>
<path d="M30.3652 98.2021C31.4357 98.2021 32.3034 99.07 32.3034 100.14C32.3034 101.211 31.4355 102.078 30.3652 102.078H20.0281C18.9576 102.078 18.0899 101.21 18.0899 100.14C18.0899 99.0697 18.9578 98.2021 20.0281 98.2021H30.3652ZM34.2415 33.5954C33.171 33.5954 32.3034 34.4633 32.3034 35.5335C32.3034 36.604 33.1712 37.4717 34.2415 37.4717H62.6683C63.739 37.4717 64.6065 36.6038 64.6065 35.5335C64.6065 34.463 63.739 33.5954 62.6683 33.5954H34.2415ZM78.8201 25.1966C78.8201 24.1262 77.9527 23.2585 76.882 23.2585H20.0281C18.9576 23.2585 18.0899 24.1264 18.0899 25.1966C18.0899 26.2669 18.9578 27.1348 20.0281 27.1348H76.882C77.9527 27.1348 78.8201 26.2669 78.8201 25.1966ZM60.7304 91.0954C60.7304 81.4768 68.5556 73.6516 78.1742 73.6516C79.2449 73.6516 80.1124 72.7837 80.1124 71.7134C80.1124 70.6429 79.2449 69.7753 78.1742 69.7753C66.4185 69.7753 56.8541 79.3394 56.8541 91.0954C56.8541 102.851 66.4185 112.415 78.1742 112.415C79.6079 112.415 81.0421 112.272 82.4365 111.989C83.4854 111.776 84.1632 110.753 83.9503 109.704C83.7374 108.655 82.7158 107.976 81.665 108.19C80.524 108.422 79.3495 108.539 78.174 108.539C68.5554 108.539 60.7304 100.714 60.7304 91.0954ZM50.3933 89.8031C50.3933 88.7326 49.5254 87.865 48.4551 87.865H20.0281C18.9576 87.865 18.0899 88.7329 18.0899 89.8031C18.0899 90.8736 18.9578 91.7413 20.0281 91.7413H48.4549C49.5254 91.7415 50.3933 90.8736 50.3933 89.8031ZM78.8201 61.3763C78.8201 60.3058 77.9527 59.4381 76.882 59.4381H20.0281C18.9576 59.4381 18.0899 60.306 18.0899 61.3763C18.0899 62.4468 18.9578 63.3144 20.0281 63.3144H76.882C77.9527 63.3144 78.8201 62.4468 78.8201 61.3763ZM115 14.8595V38.118C115 43.2444 110.999 47.4539 105.955 47.7877V97.5562C105.955 99.461 104.771 101.095 103.101 101.76L99.9374 118.632C99.4895 121.019 97.4013 122.753 94.9719 122.753C92.5425 122.753 90.454 121.019 90.0062 118.632L86.8427 101.759C85.1721 101.094 83.9887 99.4608 83.9887 97.5559V10.9832C83.9887 4.92689 88.9156 0 94.9719 0C99.825 0 104.074 3.23352 105.47 7.75283H107.893C111.812 7.75283 115 10.9408 115 14.8595ZM99.0971 102.078H90.8465L93.8161 117.917C93.9201 118.473 94.4063 118.876 94.9717 118.876C95.537 118.876 96.023 118.473 96.1273 117.917L99.0971 102.078ZM102.079 47.2554C98.3184 45.9222 95.618 42.3295 95.618 38.118V14.8595C95.618 11.4054 98.0951 8.51884 101.366 7.88302C100.201 5.49869 97.7384 3.8763 94.9721 3.8763C91.0536 3.8763 87.8654 7.06427 87.8654 10.983V97.5559C87.8654 97.9062 88.1455 98.1922 88.4936 98.2018C88.5125 98.2018 88.5312 98.2018 88.5504 98.2021H101.394C101.413 98.2018 101.432 98.2018 101.451 98.2018C101.799 98.1922 102.079 97.9062 102.079 97.5559L102.079 47.2554ZM111.123 14.8595C111.123 13.0782 109.674 11.6291 107.893 11.6291H103.945C103.93 11.6294 103.916 11.6294 103.901 11.6291H102.725C100.943 11.6291 99.4941 13.0782 99.4941 14.8595V38.118C99.4941 41.3242 102.103 43.9327 105.309 43.9327C108.515 43.9327 111.123 41.3245 111.123 38.118V14.8595ZM84.6348 118.876H7.10694C5.32559 118.876 3.87654 117.427 3.87654 115.646V7.1067C3.87654 5.32535 5.32559 3.8763 7.10694 3.8763H79.4665C80.5372 3.8763 81.4046 3.0084 81.4046 1.93815C81.4046 0.867899 80.537 0 79.4662 0H7.10694C3.18797 0 0 3.18797 0 7.1067V115.646C0 119.565 3.18797 122.753 7.1067 122.753H84.6346C85.7053 122.753 86.5727 121.885 86.5727 120.814C86.5727 119.744 85.7055 118.876 84.6348 118.876ZM20.0281 52.9773H76.882C77.9527 52.9773 78.8201 52.1094 78.8201 51.0392C78.8201 49.9687 77.9527 49.101 76.882 49.101H20.0281C18.9576 49.101 18.0899 49.9689 18.0899 51.0392C18.0899 52.1097 18.9578 52.9773 20.0281 52.9773ZM78.1742 83.9887C79.2449 83.9887 80.1124 83.1208 80.1124 82.0505C80.1124 80.9803 79.2449 80.1124 78.1742 80.1124C72.1181 80.1124 67.191 85.0393 67.191 91.0956C67.191 97.1517 72.1179 102.079 78.1742 102.079C79.2449 102.079 80.1124 101.211 80.1124 100.141C80.1124 99.0702 79.2449 98.2025 78.1742 98.2025C74.2557 98.2025 71.0675 95.0146 71.0675 91.0958C71.0673 87.1766 74.2555 83.9887 78.1742 83.9887Z" fill="black"/>
</svg>
