<svg width="329" height="107" viewBox="0 0 329 107" fill="none" xmlns="http://www.w3.org/2000/svg">
<circle cx="40" cy="50" r="40" fill="#D5E9EE" fill-opacity="0.6"/>
<rect x="56.5039" y="19.1704" width="60.9465" height="16.5733" rx="8.28666" transform="rotate(87.3912 56.5039 19.1704)" fill="#97A7E1"/>
<rect x="59.2744" y="26.9995" width="60.9465" height="16.5733" rx="8.28666" transform="rotate(131.247 59.2744 26.9995)" fill="#8695CC"/>
<path d="M103.136 77H91.688V25.592H119.84V34.52H103.136V47.768H118.688V56.696H103.136V77ZM148.62 77H125.076V70.808L131.052 67.928V34.664L125.076 31.784V25.592H148.62V31.784L142.716 34.664V67.928L148.62 70.808V77ZM200.94 77H185.892L166.524 38.12H166.236C166.284 39.32 166.332 40.544 166.38 41.792C166.428 42.992 166.476 44.216 166.524 45.464C166.62 46.664 166.692 47.888 166.74 49.136C166.788 50.336 166.836 51.56 166.884 52.808V77H156.516V25.592H171.492L190.788 64.112H191.004C191.004 62.912 190.98 61.736 190.932 60.584C190.884 59.384 190.812 58.208 190.716 57.056C190.668 55.856 190.62 54.68 190.572 53.528C190.524 52.328 190.5 51.128 190.5 49.928V25.592H200.94V77ZM242.296 62.744C242.296 65.768 241.624 68.408 240.28 70.664C238.936 72.92 236.896 74.672 234.16 75.92C231.472 77.12 228.064 77.72 223.936 77.72C222.016 77.72 220.24 77.6 218.608 77.36C216.976 77.12 215.44 76.784 214 76.352C212.56 75.872 211.12 75.296 209.68 74.624V64.472C212.128 65.528 214.624 66.512 217.168 67.424C219.76 68.288 222.208 68.72 224.512 68.72C226 68.72 227.2 68.48 228.112 68C229.024 67.52 229.696 66.872 230.128 66.056C230.56 65.24 230.776 64.304 230.776 63.248C230.776 61.952 230.416 60.848 229.696 59.936C229.024 59.024 228.016 58.184 226.672 57.416C225.328 56.6 223.672 55.784 221.704 54.968C220.264 54.344 218.848 53.624 217.456 52.808C216.064 51.992 214.816 51.008 213.712 49.856C212.608 48.656 211.72 47.216 211.048 45.536C210.424 43.856 210.112 41.84 210.112 39.488C210.112 36.416 210.832 33.8 212.272 31.64C213.712 29.432 215.728 27.752 218.32 26.6C220.912 25.448 223.936 24.872 227.392 24.872C230.224 24.872 232.84 25.184 235.24 25.808C237.688 26.432 240.016 27.32 242.224 28.472L238.552 36.968C236.44 36.008 234.424 35.264 232.504 34.736C230.632 34.208 228.808 33.944 227.032 33.944C225.832 33.944 224.824 34.16 224.008 34.592C223.192 35.024 222.568 35.624 222.136 36.392C221.752 37.16 221.56 38.072 221.56 39.128C221.56 40.328 221.872 41.36 222.496 42.224C223.168 43.04 224.2 43.856 225.592 44.672C226.984 45.44 228.76 46.376 230.92 47.48C233.32 48.68 235.36 49.952 237.04 51.296C238.768 52.592 240.064 54.152 240.928 55.976C241.84 57.8 242.296 60.056 242.296 62.744ZM278.678 77H250.454V25.592H278.678V34.52H262.118V45.824H277.526V54.752H262.118V68H278.678V77ZM307.945 77H296.281V34.664H283.825V25.592H320.401V34.664H307.945V77Z" fill="#5289FF"/>
</svg>
